<svg width="32" height="32" viewBox="0 0 32 32" fill="none" xmlns="http://www.w3.org/2000/svg">
<path d="M26.5344 13.7105C26.3382 13.7292 26.1413 13.7391 25.9438 13.7405C23.7824 13.7405 21.7672 12.6511 20.5834 10.8428V20.7083C20.5834 24.7359 17.318 28 13.2917 28C9.26409 28 6 24.7359 6 20.7083C6 16.6814 9.26409 13.4172 13.2917 13.4172C13.4433 13.4172 13.5923 13.4305 13.7419 13.4398V17.0332C13.5923 17.0152 13.4453 16.9879 13.2917 16.9879C11.236 16.9879 9.57002 18.6546 9.57002 20.709C9.57002 22.7647 11.236 24.4306 13.2917 24.4306C15.3474 24.4306 17.1623 22.8112 17.1623 20.7555L17.1989 4H20.6366C20.9605 7.08255 23.4458 9.49073 26.5377 9.71685V13.7105" fill="white"/>
</svg>
